<?xml version="1.0" encoding="UTF-8" standalone="no"?>
<svg
   width="16"
   height="16"
   viewBox="0 0 16 16"
   version="1.1"
   id="svg1"
   xmlns="http://www.w3.org/2000/svg"
   xmlns:svg="http://www.w3.org/2000/svg">
  <defs
     id="defs1" />
  <path
     d="m 16,14.175167 -1.882,-1.64675 c 0.350667,-0.462 0.557333,-1.015 0.557333,-1.61175 0,-1.6111669 -1.492,-2.9166669 -3.333333,-2.9166669 -1.841333,0 -3.333333,1.3055 -3.333333,2.9166669 0,1.611166 1.492,2.916666 3.333333,2.916666 0.677333,0 1.304667,-0.179083 1.830667,-0.482416 L 15.057333,15 Z m -6.658,-3.2585 c 0,-0.9648339 0.897333,-1.7499999 2,-1.7499999 1.102667,0 2,0.785166 2,1.7499999 0,0.964833 -0.897333,1.75 -2,1.75 -1.102667,0 -2,-0.785167 -2,-1.75 z m -2.666667,0 0.0013,-0.01983 -2.01,1.26875 V 4.5425871 L 7.333299,2.8590834 V 8.8365001 C 7.672,8.3383331 8.126,7.9084171 8.666667,7.5759171 V 2.8590834 l 2.666666,1.6834997 v 2.29075 h 0.0087 c 0.224,0 0.442667,0.01867 0.658,0.0455 V 4.5414171 L 14.6667,3.0953331 v 4.960667 c 0.792,0.704667 1.290666,1.659 1.333333,2.7142499 V 1 L 11.696667,3.3333331 8,1 4.303333,3.3333331 0,1 V 11.5 L 4.303333,13.833333 6.91,12.188333 C 6.759333,11.787583 6.675333,11.360583 6.675333,10.916667 Z M 4,12.29625 1.333333,10.850167 V 3.0953331 L 4,4.5414171 Z"
     id="path1"
     style="fill:#ffca5f;fill-opacity:1;stroke-width:0.999994" />
</svg>
