<?xml version="1.0" encoding="UTF-8" standalone="no"?>
<svg
   width="16"
   height="16"
   viewBox="0 0 16 16"
   version="1.1"
   id="svg1"
   xmlns="http://www.w3.org/2000/svg"
   xmlns:svg="http://www.w3.org/2000/svg">
  <defs
     id="defs1" />
  <path
     id="path1-8"
     style="fill:#ffca5f;fill-opacity:1;stroke-width:1.18995"
     d="M 8.0016,5.4545455 C 6.3112,5.4545455 4,5.8277492 4,7.0797202 v 1.840951 C 4,10.172644 6.4816,10.545455 8.0016,10.545455 9.5156,10.545455 12,10.172644 12,8.9206712 V 7.0797202 C 12,5.8273566 9.6131994,5.4545455 8.0016,5.4545455 Z m 0,0.7452308 c 1.456,0 3.198001,0.3387415 3.198001,0.8799439 0,0.5893714 -2.042401,0.8799439 -3.198001,0.8799439 -1.3656,0 -3.2043993,-0.3371741 -3.2043993,-0.8799439 0,-0.5901534 1.9256,-0.8799439 3.2043993,-0.8799439 z m 3.198001,2.6265177 c 0,0.6524191 -2.042401,0.9739298 -3.198001,0.9739298 -1.3656,0 -3.2043993,-0.3735945 -3.2043993,-0.9739298 V 8.0665732 C 5.6444007,8.5662657 6.866,8.7299588 8.0016,8.7299588 c 1.132,0 2.3512,-0.1636931 3.198001,-0.6633856 z M 0,1 V 12.454546 L 4.3033854,15 8,12.454546 11.696615,15 16,12.454546 V 1 L 11.696615,3.5454546 8,1 4.3033854,3.5454546 Z m 7.3333334,2.0284091 v 1.8311903 c 0.2269033,-0.012869 0.454918,-0.024858 0.6679686,-0.024858 0.2086427,0 0.437598,0.012504 0.6653647,0.026101 V 3.0284091 L 11.333333,4.864169 V 5.5730211 C 11.739851,5.8129822 12,6.1315068 12,6.5449674 V 4.8629262 L 14.666667,3.2856889 V 11.746094 L 12,13.323331 V 9.4562762 c 0,0.4062291 -0.261562,0.7198668 -0.666667,0.9582738 v 2.765848 l -2.6666663,-1.83576 v -0.37232 c -0.2309607,0.0148 -0.46122,0.02735 -0.6653647,0.02735 -0.2050746,0 -0.4363426,-0.01253 -0.6679686,-0.02735 v 0.37232 l -2.6666667,1.83576 V 10.560573 C 4.2614772,10.32213 4,10.008691 4,9.6022988 V 13.323331 L 1.3333333,11.746094 V 3.2856889 L 4,4.8629262 V 6.3374375 C 4,5.918447 4.2588552,5.7398263 4.6666667,5.4987308 V 4.864169 Z" />
</svg>
